<?xml version="1.0" standalone="no"?>
<!DOCTYPE svg PUBLIC "-//W3C//DTD SVG 20010904//EN"
 "http://www.w3.org/TR/2001/REC-SVG-20010904/DTD/svg10.dtd">
<svg version="1.0" xmlns="http://www.w3.org/2000/svg"
 width="499.000000pt" height="499.000000pt" viewBox="0 0 499.000000 499.000000"
 preserveAspectRatio="xMidYMid meet">

<g transform="translate(0.000000,499.000000) scale(0.100000,-0.100000)"
fill="#000000" stroke="none">
<path d="M1050 3219 c-188 -31 -376 -175 -471 -360 -51 -98 -69 -182 -69 -315
0 -92 4 -125 26 -190 87 -270 309 -448 600 -479 129 -15 319 37 432 118 l42
30 43 -30 c114 -82 305 -133 441 -118 137 16 233 52 358 138 14 9 25 6 60 -20
219 -156 535 -158 764 -3 25 16 47 30 50 30 3 0 25 -14 50 -31 112 -77 228
-112 374 -112 285 -1 523 159 630 422 40 97 54 194 46 309 -25 353 -317 622
-676 622 -149 0 -291 -47 -398 -131 -24 -18 -25 -18 -66 10 -108 74 -209 109
-341 118 -154 10 -299 -27 -420 -106 l-59 -39 -30 23 c-223 165 -554 167 -788
4 -35 -25 -38 -25 -106 19 -136 88 -313 120 -492 91z m265 -153 c57 -15 129
-48 164 -75 l23 -18 -40 -68 c-61 -101 -102 -243 -102 -354 0 -110 52 -281
112 -369 36 -52 31 -61 -56 -102 -90 -42 -142 -53 -236 -53 -236 1 -437 152
-504 382 -23 78 -21 217 4 301 47 159 183 297 340 345 30 9 60 18 65 20 28 9
186 3 230 -9z m925 -25 c41 -17 85 -40 98 -51 l23 -19 -29 -40 c-38 -52 -88
-179 -102 -255 -26 -148 -3 -296 66 -433 25 -51 50 -93 55 -93 21 0 6 -22 -33
-47 -159 -100 -380 -103 -545 -6 -24 14 -45 29 -49 34 -3 5 6 24 19 41 103
139 144 368 97 543 -23 85 -62 175 -98 223 -24 32 -24 33 -6 48 27 22 137 73
182 84 20 5 84 8 142 6 92 -2 114 -7 180 -35z m789 24 c64 -17 161 -64 174
-85 6 -11 -2 -34 -30 -80 -68 -113 -93 -205 -93 -343 0 -144 33 -260 112 -389
23 -37 23 -37 3 -52 -11 -9 -40 -25 -65 -37 -153 -73 -328 -71 -480 6 -75 38
-77 44 -31 119 131 213 129 492 -4 708 -37 59 -37 62 -19 75 34 26 118 66 164
79 62 17 204 17 269 -1z m849 3 c75 -18 192 -85 249 -140 57 -56 115 -160 138
-248 30 -113 14 -255 -43 -370 -33 -69 -150 -187 -218 -222 -174 -90 -378 -82
-536 20 l-37 24 28 42 c80 118 106 214 106 391 -1 133 -2 144 -33 220 -17 45
-46 103 -63 130 -23 36 -29 53 -22 65 13 20 109 68 170 85 61 17 200 19 261 3z
m-1359 -292 c65 -139 63 -310 -5 -454 -20 -40 -40 -72 -46 -70 -17 6 -67 106
-83 168 -17 63 -19 185 -4 249 5 24 25 78 44 119 41 87 47 86 94 -12z m859 -9
c45 -109 56 -200 37 -306 -16 -85 -69 -207 -90 -205 -21 2 -82 144 -95 220
-12 67 -11 88 2 159 16 79 43 153 76 203 20 31 34 17 70 -71z m-1733 39 c60
-102 80 -259 49 -380 -19 -76 -72 -176 -88 -170 -14 5 -49 74 -74 143 -25 74
-21 250 8 325 27 70 58 126 71 126 4 0 20 -20 34 -44z"/>
</g>
</svg>
