<svg width="35" height="35" viewBox="0 0 35 35" fill="none" xmlns="http://www.w3.org/2000/svg">
<path d="M32.1089 16.0371C31.6078 15.372 29.7464 14.914 28.9589 13.717C28.1714 12.52 27.5268 9.92783 25.5225 8.93184C23.5182 7.93584 19.6873 7.65625 17.4998 7.65625C15.3123 7.65625 11.4842 7.92969 9.47717 8.92979C7.47014 9.92988 6.82825 12.52 6.04075 13.7149C5.25325 14.9099 3.39182 15.372 2.89075 16.0371C2.38967 16.7022 2.03694 20.907 2.25159 22.9688C2.46623 25.0305 2.86682 26.25 2.86682 26.25H8.74573C9.70823 26.25 10.0213 25.8884 11.9901 25.7031C14.1502 25.498 16.2694 25.4297 17.4998 25.4297C18.7303 25.4297 20.9178 25.498 23.0766 25.7031C25.0453 25.8897 25.3687 26.25 26.3209 26.25H32.1315C32.1315 26.25 32.5321 25.0305 32.7467 22.9688C32.9614 20.907 32.6073 16.7022 32.1089 16.0371ZM27.3436 26.25H31.1717V27.3438H27.3436V26.25ZM3.82795 26.25H7.65608V27.3438H3.82795V26.25Z" stroke="#E46400" stroke-width="2" stroke-linecap="round" stroke-linejoin="round"/>
<path d="M24.9151 21.134C24.5111 20.6671 23.1945 20.2774 21.4513 20.0163C19.7082 19.7552 19.0724 19.6875 17.5138 19.6875C15.9553 19.6875 15.2464 19.7996 13.5757 20.0163C11.905 20.233 10.6506 20.6185 10.1126 21.134C9.30525 21.916 10.4879 22.7937 11.4162 22.9004C12.3158 23.0029 14.1143 22.9653 17.5214 22.9653C20.9284 22.9653 22.7269 23.0029 23.6265 22.9004C24.5535 22.7876 25.6513 21.9707 24.9151 21.134ZM29.502 16.6147C29.4982 16.5604 29.4744 16.5095 29.4353 16.4716C29.3962 16.4338 29.3445 16.4117 29.2901 16.4097C28.4828 16.3809 27.6632 16.4384 26.2092 16.867C25.4673 17.0835 24.7708 17.4323 24.1529 17.8965C23.997 18.0182 24.0524 18.347 24.2479 18.3818C25.4464 18.5224 26.652 18.5932 27.8587 18.5937C28.5826 18.5937 29.3298 18.3887 29.4685 17.7434C29.5393 17.3713 29.5506 16.9903 29.502 16.6147ZM5.49832 16.6147C5.50216 16.5604 5.52591 16.5095 5.56502 16.4716C5.60413 16.4338 5.65585 16.4117 5.71023 16.4097C6.51756 16.3809 7.33719 16.4384 8.79119 16.867C9.533 17.0835 10.2296 17.4323 10.8474 17.8965C11.0033 18.0182 10.9479 18.347 10.7524 18.3818C9.55396 18.5224 8.34835 18.5932 7.14168 18.5937C6.41775 18.5937 5.67058 18.3887 5.53182 17.7434C5.46107 17.3713 5.44976 16.9903 5.49832 16.6147Z" fill="#E46400"/>
<path d="M29.5312 13.125H30.625M4.375 13.125H5.46875M5.33203 14.4238C5.33203 14.4238 8.50049 13.6035 17.5 13.6035C26.4995 13.6035 29.668 14.4238 29.668 14.4238" stroke="#E46400" stroke-width="2" stroke-linecap="round" stroke-linejoin="round"/>
</svg>
