<?xml version="1.0" standalone="no"?>
<!DOCTYPE svg PUBLIC "-//W3C//DTD SVG 20010904//EN"
 "http://www.w3.org/TR/2001/REC-SVG-20010904/DTD/svg10.dtd">
<svg version="1.0" xmlns="http://www.w3.org/2000/svg"
 width="4310.000000pt" height="5540.000000pt" viewBox="0 0 4310.000000 5540.000000"
 preserveAspectRatio="xMidYMid meet">

<g transform="translate(0.000000,5540.000000) scale(0.100000,-0.100000)"
fill="#000000" stroke="none">
<path d="M20825 54110 c-836 -160 -1748 -333 -13100 -2490 -3421 -650 -6221
-1183 -6223 -1185 -1 -1 -1 -271 0 -601 l3 -599 10092 1867 10093 1867 10092
-1868 10093 -1867 3 600 c1 329 1 600 0 602 -8 6 -20130 3827 -20173 3830 -35
2 -306 -46 -880 -156z"/>
<path d="M14120 50365 c-4150 -706 -8686 -1478 -10080 -1715 -1394 -237 -2536
-432 -2537 -434 -2 -2 8 -772 22 -1712 14 -940 59 -3975 99 -6744 76 -5121 89
-5900 106 -6255 189 -3908 970 -8039 2252 -11915 1786 -5400 4510 -10214 8052
-14235 614 -697 1164 -1277 1902 -2005 1944 -1919 4201 -3701 6597 -5206 l228
-144 928 0 927 0 205 128 c1040 652 2120 1403 3099 2156 4304 3307 7810 7425
10442 12266 460 845 926 1781 1330 2670 834 1834 1557 3778 2147 5775 913
3090 1516 6364 1746 9470 52 708 80 1347 90 2070 16 1118 158 10656 180 12070
13 885 23 1610 21 1612 -1 1 -625 108 -1387 238 -2283 388 -2615 444 -2824
480 -110 19 -441 75 -735 125 -294 50 -614 104 -710 121 -7068 1202 -14476
2460 -14510 2463 -32 4 -2295 -378 -7590 -1279z m8720 -2015 c977 -22 1765
-56 2645 -115 4210 -284 8170 -1057 11595 -2265 1472 -519 2879 -1141 3832
-1694 l158 -91 0 -45 c0 -25 -45 -2164 -99 -4755 -55 -2590 -105 -4955 -111
-5255 -23 -1206 -106 -2413 -251 -3675 -649 -5659 -2353 -11078 -4957 -15765
-2152 -3874 -4897 -7246 -8217 -10095 -1454 -1248 -3007 -2386 -4685 -3432
-458 -286 -1040 -633 -1060 -633 -14 0 -181 97 -536 311 -3568 2149 -6658
4758 -9265 7824 -3913 4602 -6699 10222 -8203 16548 -691 2902 -1105 6013
-1166 8742 -25 1141 -211 10107 -210 10165 l0 65 158 91 c1217 708 3146 1509
5062 2102 3895 1207 8232 1868 12940 1971 522 12 1869 12 2370 1z"/>
<path d="M21221 46706 c-14 -104 -46 -227 -70 -275 -11 -20 -47 -72 -81 -116
-77 -99 -83 -115 -69 -168 30 -111 296 -287 566 -373 209 -66 264 -58 279 42
15 100 -65 257 -277 550 -64 87 -149 209 -189 269 -126 191 -141 198 -159 71z"/>
<path d="M22226 46748 c-8 -24 -30 -90 -47 -148 -17 -58 -56 -168 -87 -245
-87 -223 -84 -332 13 -480 61 -91 75 -119 75 -146 0 -56 -104 -132 -226 -164
-33 -9 -100 -16 -154 -16 -140 -1 -257 36 -579 183 -300 136 -312 140 -471
170 -175 33 -312 29 -609 -15 -135 -21 -270 -37 -301 -37 -62 0 -80 -11 -80
-51 0 -36 27 -52 147 -88 54 -16 110 -34 125 -40 15 -6 89 -22 165 -36 77 -15
145 -33 153 -41 13 -14 12 -17 -8 -35 -64 -51 -216 -69 -391 -44 -170 24 -346
17 -451 -18 -97 -33 -301 -129 -319 -150 -19 -23 -6 -65 24 -79 20 -9 51 -6
157 17 159 34 349 44 465 25 78 -12 477 -126 547 -155 72 -31 215 -56 301 -54
44 2 86 -1 93 -5 40 -24 -16 -85 -101 -110 -86 -25 -111 -71 -52 -98 20 -9 42
-8 103 5 104 23 169 22 210 -3 24 -15 32 -27 32 -47 -1 -49 -22 -63 -163 -103
-340 -98 -508 -178 -862 -410 -115 -76 -250 -160 -300 -187 -169 -94 -467
-224 -875 -383 -124 -49 -256 -103 -295 -120 -196 -91 -482 -161 -770 -190
-233 -24 -385 -77 -550 -190 -97 -68 -119 -93 -251 -290 -409 -609 -450 -733
-374 -1156 17 -93 35 -183 41 -201 14 -45 78 -99 126 -107 113 -20 616 82 968
195 233 75 275 81 330 45 35 -23 40 -56 16 -111 -18 -40 -28 -49 -83 -74 -93
-42 -356 -125 -578 -183 -125 -32 -203 -57 -216 -69 -35 -33 -58 -83 -50 -112
10 -43 110 -133 190 -172 118 -58 178 -68 356 -62 190 7 250 22 450 117 393
185 612 207 1140 114 239 -42 306 -58 549 -128 105 -31 327 -83 493 -117 297
-61 306 -62 468 -63 154 0 174 2 293 32 149 37 188 39 231 13 61 -38 136 -199
136 -290 0 -85 -58 -282 -148 -506 -199 -496 -619 -1378 -771 -1623 -94 -151
-219 -325 -356 -497 -145 -181 -682 -782 -732 -818 -69 -51 -225 -200 -326
-312 -128 -142 -210 -252 -337 -450 -134 -210 -241 -335 -428 -498 -59 -51
-164 -122 -231 -157 -24 -12 -117 -47 -205 -76 -394 -134 -744 -354 -1294
-813 -106 -88 -201 -161 -210 -161 -9 0 -73 42 -142 93 -194 144 -1411 968
-1642 1111 -65 40 -87 61 -135 129 -31 45 -111 138 -177 206 -249 255 -490
417 -749 505 -128 44 -344 96 -448 108 -241 28 -502 -57 -714 -234 -127 -106
-184 -177 -282 -350 -45 -79 -157 -253 -249 -388 -193 -282 -214 -317 -314
-500 -40 -74 -155 -272 -255 -440 -286 -477 -353 -599 -552 -1000 -285 -574
-363 -711 -789 -1380 -247 -388 -310 -500 -397 -701 -69 -157 -92 -264 -111
-506 -17 -216 -26 -250 -101 -383 -119 -210 -233 -505 -279 -718 -114 -531
-121 -912 -18 -992 117 -93 798 182 1230 497 196 143 341 298 408 437 86 179
67 288 -97 536 -154 235 -156 335 -10 539 114 160 122 182 181 500 104 572
175 687 981 1591 135 152 274 310 308 351 141 166 325 442 480 716 133 234
137 241 173 264 29 18 43 20 113 15 272 -20 258 -18 300 -47 76 -52 153 -145
290 -349 202 -301 435 -624 512 -711 37 -42 145 -145 238 -230 94 -84 224
-205 290 -268 66 -63 176 -160 245 -216 199 -163 263 -241 230 -280 -33 -40
-150 -7 -379 105 -211 103 -359 157 -656 236 -727 194 -1197 285 -1550 301
-113 5 -141 3 -215 -16 -107 -27 -187 -64 -313 -147 -192 -126 -247 -174 -371
-326 -65 -79 -129 -165 -143 -193 -14 -27 -52 -96 -85 -153 -130 -222 -154
-321 -145 -587 14 -393 99 -1060 188 -1480 16 -77 54 -324 84 -550 30 -225 57
-421 60 -435 2 -14 16 -137 30 -275 50 -495 77 -655 140 -830 49 -135 55 -181
58 -421 3 -206 5 -223 29 -289 57 -157 124 -259 233 -358 68 -61 184 -225 243
-342 16 -33 64 -145 107 -250 196 -484 344 -774 572 -1120 316 -479 541 -705
703 -705 41 0 141 53 199 106 68 61 160 184 200 267 55 112 117 366 147 604
22 174 23 472 0 624 -37 261 -87 381 -205 500 -92 93 -175 135 -396 204 -185
58 -265 97 -325 155 -84 83 -110 170 -110 377 0 74 -7 183 -15 242 -15 102
-20 115 -130 341 -179 372 -286 661 -314 851 -17 118 -29 287 -51 684 -22 410
-36 598 -51 695 -5 36 -46 205 -89 376 -44 172 -80 331 -80 353 0 57 18 88 88
153 79 72 116 83 249 70 80 -8 113 -17 164 -42 103 -52 194 -114 364 -250 100
-80 261 -192 428 -299 305 -194 455 -281 678 -392 150 -75 263 -147 549 -347
171 -120 182 -130 238 -226 106 -179 394 -422 658 -554 117 -58 207 -88 429
-142 207 -50 273 -73 326 -112 72 -53 362 -468 632 -905 114 -183 230 -368
258 -410 103 -154 486 -618 759 -920 241 -267 324 -350 621 -624 369 -339 809
-716 1145 -982 115 -91 250 -202 299 -248 205 -187 445 -378 695 -549 91 -63
244 -170 340 -240 96 -70 281 -198 410 -285 416 -281 578 -403 725 -550 151
-150 266 -311 314 -438 36 -98 23 -177 -29 -177 -38 0 -92 42 -271 211 -275
258 -507 450 -899 745 -284 214 -409 298 -690 466 -276 166 -377 220 -404 216
-17 -2 -25 -18 -42 -78 -53 -186 -59 -250 -58 -630 1 -461 20 -668 90 -1009
146 -710 404 -1390 916 -2415 198 -396 373 -706 665 -1174 63 -101 121 -201
129 -224 21 -60 28 -166 15 -216 -17 -60 -143 -295 -202 -376 -85 -115 -101
-121 -444 -154 -167 -16 -248 -16 -1130 -5 -695 9 -1001 16 -1140 28 -578 49
-855 76 -895 89 -95 29 -235 40 -505 41 -333 0 -364 -5 -815 -127 -67 -18
-120 -21 -485 -28 -273 -5 -455 -13 -545 -24 -153 -19 -351 -58 -449 -88 -77
-24 -519 -199 -635 -252 -171 -78 -296 -181 -385 -318 -52 -79 -59 -115 -36
-176 108 -284 1134 -712 1710 -713 127 0 190 11 258 49 67 36 112 90 177 213
72 134 123 199 223 282 106 89 125 98 217 104 88 6 143 -7 289 -69 249 -105
356 -103 807 16 756 201 2307 28 3946 -440 276 -78 406 -108 561 -129 156 -20
235 -19 335 5 148 36 206 77 247 177 16 38 48 113 73 168 44 98 45 103 55 247
9 142 8 152 -18 270 -38 176 -118 407 -233 678 -120 283 -160 391 -245 660
-75 238 -85 281 -133 610 -32 220 -36 273 -41 520 -8 417 14 737 73 1059 36
196 146 621 209 809 106 312 189 481 485 977 239 401 311 531 399 723 90 194
114 262 167 477 50 204 84 285 127 300 36 12 56 0 82 -51 18 -35 20 -58 19
-234 0 -222 -14 -310 -86 -530 -84 -258 -191 -470 -451 -895 -331 -541 -407
-729 -571 -1405 -157 -644 -174 -1164 -60 -1790 66 -365 115 -552 266 -1010
85 -259 109 -320 279 -711 113 -261 162 -359 347 -689 220 -395 406 -706 473
-796 102 -134 111 -267 29 -440 -63 -135 -111 -199 -374 -495 -413 -463 -1096
-1053 -2081 -1794 -257 -193 -344 -265 -423 -349 -73 -79 -103 -127 -140 -232
-66 -180 -155 -308 -294 -418 -45 -36 -189 -137 -319 -224 -309 -208 -402
-282 -594 -476 -250 -252 -380 -426 -443 -594 -34 -89 -38 -238 -8 -271 26
-28 176 -74 346 -105 507 -93 1114 -92 1530 0 255 57 476 152 572 247 103 101
113 194 43 407 -70 214 -59 308 51 417 55 56 83 73 251 154 173 84 193 97 253
158 81 83 146 196 180 315 46 158 63 182 370 541 555 647 945 1003 1560 1424
343 235 592 387 839 512 232 116 299 166 350 259 l36 65 0 215 c-1 298 -14
574 -32 645 -23 95 -82 208 -193 375 -156 233 -222 388 -276 644 -88 426 6
814 292 1196 149 200 162 211 593 500 509 341 997 705 1268 947 147 131 429
416 547 554 261 304 566 755 706 1044 162 336 266 725 310 1165 18 179 57 227
178 217 75 -6 103 -23 149 -91 69 -101 99 -268 90 -501 -7 -173 -30 -317 -87
-544 -123 -490 -167 -892 -125 -1134 26 -152 86 -318 119 -330 32 -13 43 18
49 140 10 211 72 464 153 626 111 221 155 373 164 572 6 144 8 153 41 225 57
121 153 190 227 164 54 -19 79 -101 108 -349 20 -167 15 -415 -11 -544 -60
-304 -260 -782 -496 -1181 -158 -267 -158 -267 -239 -428 -39 -79 -90 -199
-113 -265 -41 -118 -42 -126 -42 -247 0 -103 4 -138 23 -200 30 -93 94 -224
141 -287 72 -94 128 -98 124 -7 -9 218 -6 280 15 359 59 212 249 517 473 760
158 171 395 490 516 692 98 164 208 434 306 753 110 357 145 748 98 1100 -33
248 -45 285 -155 483 -129 234 -139 258 -131 310 15 86 40 97 116 49 122 -79
269 -284 352 -497 98 -249 116 -361 127 -795 12 -496 40 -635 182 -895 169
-308 236 -392 254 -319 14 55 -4 286 -31 399 -68 290 -69 293 -68 455 0 187
18 276 71 370 54 95 57 103 92 269 52 249 41 400 -60 796 -52 204 -59 224
-152 444 l-62 143 23 18 c13 9 116 48 230 86 360 119 809 359 1041 554 204
172 328 299 451 462 286 377 430 635 538 963 140 423 204 872 204 1410 0 363
-27 610 -118 1110 -123 673 -138 1067 -60 1655 7 58 17 137 20 175 16 171 72
359 156 527 61 122 100 183 209 328 324 433 478 718 535 999 51 253 -20 631
-120 631 -49 0 -105 -103 -231 -422 -108 -274 -196 -450 -312 -626 -326 -489
-649 -844 -813 -894 -59 -17 -99 5 -133 74 -36 74 -84 301 -92 434 -12 201 31
453 111 655 50 124 163 349 231 460 55 88 271 382 458 624 158 204 261 365
356 560 101 206 142 323 195 550 35 152 37 164 26 233 -17 110 -61 182 -113
182 -47 0 -136 -119 -348 -465 -256 -417 -374 -584 -555 -786 -161 -178 -501
-493 -828 -765 -160 -134 -189 -147 -208 -96 -15 38 -25 326 -18 496 26 578
373 1350 884 1967 132 159 417 454 571 590 153 135 183 201 108 236 -29 15
-37 14 -86 -1 -89 -30 -180 -90 -510 -338 -90 -68 -213 -159 -273 -203 -230
-167 -368 -302 -619 -604 -249 -299 -369 -476 -501 -740 -190 -382 -267 -645
-329 -1136 -38 -294 -39 -581 -6 -970 22 -252 109 -663 210 -990 129 -421 170
-593 224 -935 175 -1111 198 -1650 105 -2473 -40 -357 -75 -516 -162 -737
-120 -305 -293 -618 -436 -794 -64 -78 -263 -296 -357 -391 -71 -72 -289 -238
-434 -330 -173 -110 -617 -320 -825 -389 -131 -44 -289 -68 -497 -73 -247 -7
-242 -10 -277 163 -44 212 -174 630 -278 889 -182 454 -515 952 -1127 1684
-285 341 -577 642 -846 872 -425 363 -1190 931 -1453 1079 -131 74 -763 792
-1117 1270 -264 357 -440 656 -599 1018 -278 632 -365 968 -364 1417 1 270 39
540 100 700 18 48 21 50 54 48 19 -1 68 -13 109 -26 60 -19 98 -41 189 -110
201 -152 315 -197 601 -236 103 -14 174 -30 240 -54 108 -39 243 -98 298 -129
197 -112 339 -213 635 -450 228 -183 368 -268 469 -283 41 -6 49 -4 77 22 17
15 34 42 37 60 6 31 5 32 -72 69 -60 28 -98 57 -171 127 -117 113 -177 195
-236 319 -25 54 -66 124 -90 156 -54 69 -197 210 -287 283 -85 68 -238 140
-370 174 -127 33 -158 48 -166 80 -10 40 2 53 50 60 122 19 424 -52 589 -137
141 -73 320 -203 452 -329 59 -56 183 -139 207 -139 30 0 48 40 48 110 0 82
-14 131 -47 170 -14 17 -98 92 -187 167 -88 75 -206 180 -261 233 -114 110
-155 140 -315 237 -213 130 -305 169 -500 213 -120 27 -261 81 -360 137 -53
30 -160 131 -160 151 0 23 85 6 317 -64 116 -35 274 -75 350 -89 371 -70 425
-85 668 -192 94 -41 193 -84 220 -95 28 -11 118 -51 200 -90 369 -174 562
-220 832 -198 296 23 499 90 717 234 96 65 165 161 166 233 0 30 -21 63 -40
63 -23 0 -76 -28 -187 -101 -151 -99 -199 -118 -388 -159 -218 -47 -357 -40
-533 26 -136 51 -276 171 -552 473 -208 227 -363 320 -665 401 -248 66 -472
148 -655 240 -54 27 -158 73 -229 100 -101 40 -136 59 -160 86 -29 33 -30 36
-17 67 12 30 16 32 57 31 27 -1 123 -31 251 -78 113 -42 249 -87 301 -101 234
-59 568 -58 986 4 130 19 241 14 356 -15 33 -8 166 -65 295 -127 216 -102 303
-133 338 -120 21 8 44 63 38 88 -4 16 -46 50 -134 108 -154 101 -218 154 -387
317 -175 169 -231 206 -395 262 -133 45 -306 77 -503 94 -187 15 -249 31 -255
66 -4 19 36 33 203 74 99 24 123 26 245 22 112 -4 148 -10 213 -32 102 -34
295 -131 425 -213 120 -75 208 -116 307 -144 102 -28 330 -59 453 -62 94 -2
118 1 195 26 52 17 91 36 97 47 13 25 -5 130 -27 152 -11 11 -59 26 -123 39
-239 48 -365 119 -655 366 -186 159 -287 206 -590 273 -230 50 -261 60 -393
122 -86 39 -116 60 -171 115 -75 76 -121 156 -104 182 16 24 103 18 203 -14
192 -62 288 -105 348 -156 31 -27 89 -66 128 -85 122 -61 279 -58 299 6 16 51
-29 95 -216 207 -101 61 -151 99 -205 155 -81 84 -184 220 -184 242 0 39 116
1 350 -115 102 -50 224 -109 272 -130 49 -21 125 -60 170 -86 54 -30 131 -61
220 -88 170 -52 231 -88 322 -190 92 -104 222 -230 266 -260 19 -13 65 -33
101 -45 64 -21 68 -21 100 -5 92 47 92 76 0 149 -95 76 -161 155 -192 230 -39
94 -264 426 -366 541 -177 199 -251 252 -567 410 -118 59 -234 123 -257 143
-24 21 -111 123 -195 228 -84 105 -171 207 -194 227 -50 42 -130 86 -321 172
-162 73 -209 105 -209 140 0 30 23 53 80 79 37 17 63 21 145 20 97 -1 105 -3
280 -66 99 -36 223 -76 275 -88 228 -53 404 -101 443 -121 25 -13 109 -90 212
-194 180 -183 214 -209 392 -299 344 -172 514 -197 861 -125 148 30 167 65 86
157 -69 78 -149 113 -394 171 -163 38 -230 64 -311 117 -148 97 -259 256 -299
428 -36 154 -119 286 -281 447 -137 135 -259 227 -429 325 -242 139 -458 290
-520 366 -144 174 -205 270 -216 335 -5 34 -3 43 13 51 33 18 72 5 268 -88 72
-34 175 -78 230 -97 55 -19 206 -85 335 -148 269 -130 331 -153 525 -200 285
-69 349 -104 540 -286 164 -157 231 -188 467 -214 186 -22 280 -18 310 12 20
20 20 26 10 62 -18 58 -77 103 -206 156 -271 112 -324 152 -413 304 -31 53
-72 116 -92 140 -48 59 -176 157 -307 235 -60 36 -122 75 -138 87 -47 37 -111
132 -183 271 -120 234 -256 350 -656 558 -187 97 -243 118 -482 181 -273 73
-345 104 -345 149 0 40 110 112 201 131 106 23 309 -33 457 -125 182 -112 212
-128 352 -187 206 -87 261 -105 449 -140 264 -50 473 -105 658 -174 178 -67
278 -90 341 -80 142 23 191 39 238 74 60 45 84 83 68 108 -18 29 -55 42 -160
54 -144 17 -233 49 -334 123 -104 75 -195 133 -276 174 -122 61 -339 142 -452
167 -86 19 -132 36 -177 63 -64 39 -578 535 -627 606 -32 44 -38 100 -12 110
27 10 113 -37 204 -111 113 -92 285 -207 356 -239 122 -54 212 -69 414 -68
199 0 340 18 544 70 143 36 220 22 421 -76 125 -62 192 -116 326 -266 116
-130 136 -141 172 -92 30 41 27 109 -7 178 -35 69 -212 245 -351 350 -164 123
-459 261 -675 315 -138 36 -313 64 -495 80 -185 17 -215 24 -309 73 -75 39
-120 86 -288 304 -46 58 -106 123 -133 144 -28 21 -77 62 -110 91 -48 44 -114
81 -350 197 -298 147 -345 175 -377 223 -19 29 -24 79 -10 101 28 43 132 31
377 -42 99 -30 227 -66 285 -81 57 -15 163 -49 235 -77 161 -62 225 -81 390
-114 169 -34 395 -43 579 -23 72 8 205 14 296 14 193 0 228 -9 395 -105 250
-142 329 -179 430 -200 118 -24 197 -26 215 -5 34 40 -61 144 -211 232 -109
63 -157 100 -329 248 -191 165 -325 244 -524 310 -149 49 -239 65 -378 65
-196 0 -254 19 -433 140 -187 127 -483 310 -582 359 -158 79 -440 166 -647
201 -84 14 -126 34 -126 60 0 59 282 174 695 284 225 59 279 69 367 65 67 -4
86 -10 189 -62 63 -31 128 -60 146 -63 81 -16 163 31 163 92 0 86 -114 209
-306 329 -132 83 -196 100 -374 97 -80 -1 -345 -2 -590 -3 -389 0 -463 2 -591
19 -199 27 -216 37 -366 203 -145 163 -274 278 -418 374 -234 157 -398 198
-783 197 l-204 0 -31 46 c-204 296 -362 454 -702 700 -270 196 -314 234 -463
400 -48 53 -91 92 -102 92 -13 0 -23 -13 -34 -42z m1892 -1687 c45 -23 106
-87 155 -162 44 -68 52 -93 33 -108 -12 -10 -44 -5 -163 24 -149 37 -256 83
-308 131 -24 22 -25 25 -11 52 16 31 54 60 95 72 52 16 160 11 199 -9z m370
-796 c110 -46 258 -273 185 -283 -12 -2 -91 15 -175 38 -123 33 -167 50 -225
86 -85 53 -90 70 -38 119 55 52 177 71 253 40z m-2694 -35 c26 -13 64 -39 83
-59 40 -41 126 -211 121 -238 -4 -22 -62 -30 -84 -12 -9 7 -26 34 -39 59 -41
82 -176 153 -312 165 -91 8 -120 26 -109 68 9 39 40 47 171 44 102 -3 127 -6
169 -27z m-1474 -172 c-1 -87 -217 -353 -382 -471 -161 -115 -481 -229 -778
-276 -153 -25 -416 -52 -435 -45 -20 8 -28 36 -13 49 7 6 72 29 143 50 169 49
439 144 590 207 211 88 404 197 628 354 53 38 124 88 158 112 68 48 89 52 89
20z m1223 -105 c131 -51 216 -156 293 -361 55 -146 9 -312 -87 -312 -51 0
-106 39 -215 154 -157 164 -252 199 -425 157 -48 -12 -99 -21 -115 -21 -100 0
-79 156 35 263 127 119 371 176 514 120z m2987 -625 c56 -18 99 -22 310 -28
256 -8 342 -20 421 -60 46 -24 70 -63 50 -83 -12 -12 -162 -15 -311 -7 -56 3
-75 -1 -140 -29 -41 -17 -104 -49 -140 -70 -86 -51 -252 -113 -317 -119 -48
-4 -55 -2 -83 26 -26 27 -30 37 -30 87 0 58 49 239 76 283 19 29 76 29 164 0z
m-7255 -732 c92 -43 144 -119 145 -208 0 -63 -20 -82 -100 -97 -93 -16 -232
-109 -318 -214 -72 -87 -102 -102 -135 -68 -18 18 -23 36 -26 102 -4 94 15
160 85 302 56 114 78 144 132 178 60 38 143 40 217 5z m7710 -177 c71 -33 205
-189 205 -238 0 -23 -52 -21 -185 9 -77 16 -160 37 -185 46 -71 26 -170 86
-170 104 0 24 52 69 96 85 62 22 186 19 239 -6z m-2955 -127 c0 -38 -80 -150
-186 -261 -61 -64 -153 -174 -204 -246 -129 -178 -175 -225 -259 -264 -98 -45
-197 -55 -386 -39 -148 13 -150 13 -153 38 -2 14 3 32 10 42 7 9 85 48 173 88
327 147 370 174 695 440 269 220 310 247 310 202z m-3314 -270 c22 -14 36 -55
30 -86 -8 -44 -62 -104 -130 -145 -71 -42 -96 -38 -125 22 -28 58 -27 109 3
143 40 48 185 91 222 66z m3995 -281 c-12 -92 -56 -208 -100 -262 -39 -46
-102 -79 -246 -127 -226 -75 -391 -95 -327 -39 9 8 76 47 147 87 230 128 367
237 467 372 30 40 55 65 60 60 5 -5 5 -43 -1 -91z m2323 5 c75 -44 206 -211
206 -263 0 -20 -5 -23 -41 -23 -23 0 -107 16 -188 36 -149 37 -246 78 -311
132 -32 28 -33 28 -17 59 33 63 118 95 235 88 55 -3 83 -10 116 -29z m-2124
-441 c-57 -163 -120 -246 -204 -270 -85 -24 -269 -38 -506 -38 -157 0 -234 3
-255 12 -27 11 -28 14 -12 22 9 6 115 34 235 64 119 29 260 68 312 85 139 46
325 140 395 200 74 63 79 52 35 -75z m2176 -203 c81 -41 232 -232 237 -298 2
-27 0 -29 -40 -32 -25 -2 -84 8 -140 24 -54 14 -124 33 -156 40 -111 27 -277
126 -277 166 0 31 72 95 128 113 67 21 194 15 248 -13z m-20 -800 c83 -42 244
-243 244 -303 0 -51 -21 -50 -283 20 -120 32 -207 69 -284 123 -66 45 -59 80
30 148 57 42 220 49 293 12z m-2469 -779 c28 -42 25 -352 -5 -527 -46 -265
-123 -534 -201 -701 -100 -214 -381 -629 -636 -940 -203 -247 -494 -559 -564
-606 -137 -90 -130 44 13 245 303 425 645 974 807 1297 104 208 146 313 284
714 64 187 134 377 156 422 56 118 109 152 146 96z m2470 -6 c104 -53 291
-293 281 -360 -2 -18 -10 -22 -48 -25 -25 -1 -79 7 -120 18 -41 11 -121 32
-178 46 -130 32 -173 51 -278 119 -74 48 -84 58 -84 84 0 51 84 117 177 141
66 16 195 4 250 -23z m-108 -782 c57 -28 149 -126 204 -217 40 -66 47 -105 20
-115 -37 -14 -355 67 -448 114 -158 82 -182 131 -94 194 50 36 98 48 187 49
69 0 91 -4 131 -25z m-127 -686 c47 -10 61 -19 121 -80 63 -65 127 -159 127
-186 0 -7 -9 -17 -19 -23 -24 -12 -291 54 -361 90 -75 38 -130 80 -130 99 0
29 65 83 117 97 61 16 80 17 145 3z m-72 -694 c51 -27 160 -167 160 -207 0
-24 -52 -24 -139 1 -36 10 -88 24 -114 31 -60 16 -167 84 -167 106 0 24 55 71
97 82 45 13 126 6 163 -13z m-178 -605 c67 -19 198 -184 169 -213 -16 -16
-229 40 -299 79 -92 50 -95 79 -12 122 48 24 85 27 142 12z m-11409 -349 c88
-24 109 -43 105 -95 -5 -70 -32 -78 -365 -103 -67 -5 -87 -3 -108 11 -32 21
-32 37 2 76 35 42 84 72 168 103 85 31 111 32 198 8z m11280 -165 c52 -21 157
-153 157 -196 0 -18 -61 -11 -167 19 -109 30 -213 85 -213 111 0 20 36 55 70
69 36 14 116 13 153 -3z m-147 -608 c40 -35 94 -113 94 -135 0 -19 -26 -16
-130 11 -88 24 -145 51 -170 81 -10 13 -9 19 6 36 26 29 50 38 111 38 45 1 57
-3 89 -31z m-4366 -173 c174 -38 352 -118 511 -227 140 -95 269 -223 269 -266
0 -7 -14 -19 -32 -28 -43 -22 -90 -13 -223 46 -203 90 -450 149 -775 185 -327
36 -638 0 -947 -109 -89 -32 -120 -32 -150 -4 -18 17 -23 32 -23 70 0 41 5 54
37 89 84 93 400 211 683 254 132 20 544 14 650 -10z m-8033 -153 c24 -15 36
-109 23 -176 -15 -76 -27 -100 -105 -206 -34 -47 -131 -193 -216 -325 -179
-280 -274 -409 -352 -482 -106 -100 -159 -54 -110 98 53 164 377 729 569 990
56 77 150 127 191 101z m12161 -206 c46 -24 112 -120 95 -137 -18 -18 -202 41
-245 78 -52 46 78 97 150 59z m-10196 -477 c87 -44 262 -216 344 -340 66 -98
138 -242 147 -293 4 -22 -1 -34 -21 -53 -71 -66 -117 -41 -263 142 -35 44 -96
118 -137 164 -45 52 -88 116 -114 168 -35 71 -42 95 -46 163 -5 95 -3 96 90
49z m9980 -47 c50 -33 110 -123 94 -140 -11 -10 -176 38 -217 64 -48 30 -49
48 -6 74 40 25 93 26 129 2z m-7352 -601 c0 -22 -42 -86 -174 -264 -230 -310
-347 -479 -501 -727 -156 -250 -213 -335 -253 -378 -66 -71 -74 -5 -16 141 43
109 333 692 394 792 150 246 393 464 518 465 29 0 32 -3 32 -29z m-4590 -1196
c20 -24 5 -105 -33 -182 -66 -130 -177 -253 -229 -253 -58 0 20 263 113 381
47 59 122 87 149 54z m-1983 -651 c16 -26 16 -31 -5 -113 -24 -95 -121 -299
-177 -374 -73 -98 -125 -82 -125 39 0 99 40 213 98 277 26 29 60 70 77 92 43
60 87 105 102 105 7 0 20 -12 30 -26z m12923 -389 c66 -34 86 -90 105 -296 39
-428 172 -814 445 -1290 279 -489 610 -895 1155 -1418 288 -277 308 -301 242
-301 -135 0 -697 414 -1038 766 -326 338 -692 902 -860 1327 -172 436 -269
974 -206 1139 31 80 90 108 157 73z m-9479 -254 c119 -41 529 -216 657 -280
147 -74 442 -263 533 -342 69 -59 92 -113 65 -154 -14 -22 -24 -25 -69 -25
-132 0 -245 57 -692 350 -278 182 -283 185 -461 250 -152 56 -170 64 -201 93
-31 28 -29 40 13 87 42 47 70 51 155 21z m-1695 -894 c19 -22 21 -45 32 -318
13 -331 9 -307 127 -787 47 -192 75 -322 71 -337 -8 -32 -48 -43 -81 -21 -56
37 -222 361 -254 496 -25 106 -60 362 -67 500 -7 110 10 368 27 432 5 21 20
44 32 53 30 22 86 13 113 -18z m-2291 -371 c33 -33 40 -85 28 -197 -8 -72 -18
-110 -41 -156 -36 -70 -78 -123 -98 -123 -18 0 -59 82 -73 148 -18 85 26 276
77 335 22 25 78 22 107 -7z m8241 -1375 c92 -59 290 -271 654 -696 733 -856
1050 -1190 2040 -2145 272 -262 521 -506 552 -542 153 -174 55 -171 -212 6
-190 127 -771 563 -1005 754 -226 185 -476 420 -779 733 -670 689 -1310 1534
-1388 1831 -27 103 32 129 138 59z m15429 -785 c30 -30 46 -85 94 -326 92
-454 116 -693 108 -1060 -17 -751 -122 -1151 -407 -1550 -143 -201 -463 -545
-675 -726 -236 -200 -436 -318 -510 -300 -37 9 -48 47 -34 115 13 64 48 138
92 196 17 22 160 171 317 330 302 307 375 390 499 575 155 232 253 462 336
790 45 179 96 477 118 685 7 63 -22 1061 -33 1149 -7 63 -6 84 5 106 24 46 55
51 90 16z m-8208 -1672 c39 -29 54 -61 42 -93 -24 -62 -140 -150 -328 -246
-188 -97 -256 -190 -341 -465 -89 -284 -138 -332 -205 -196 -39 80 -55 151
-55 247 0 167 71 351 196 507 105 131 205 200 364 249 63 19 93 23 187 20 95
-2 116 -5 140 -23z m-11723 -681 c43 -27 93 -57 112 -69 87 -53 147 -140 147
-212 0 -39 -4 -49 -36 -79 -48 -43 -110 -46 -156 -8 -79 68 -233 353 -215 400
11 29 67 17 148 -32z m15501 -2299 c23 -23 57 -70 75 -105 l35 -64 -1 -130
c-3 -352 -151 -857 -286 -983 -57 -52 -135 -35 -165 36 -19 46 -7 112 48 267
82 228 92 318 63 560 -24 199 -23 301 3 350 25 48 55 76 107 102 50 25 70 20
121 -33z m-4877 -1962 c7 -5 16 -23 21 -40 13 -45 -6 -114 -76 -277 -126 -291
-137 -360 -128 -800 6 -347 4 -375 -38 -383 -59 -12 -127 107 -162 284 -61
306 -60 591 2 789 46 146 114 264 201 349 76 74 141 102 180 78z m-1191 -3204
c27 -25 29 -48 8 -88 -24 -46 -109 -89 -219 -111 -91 -17 -109 9 -57 85 81
118 207 171 268 114z m-4308 -340 c43 -26 37 -69 -10 -89 -39 -15 -177 -6
-219 16 -34 18 -40 49 -11 65 55 29 199 34 240 8z m1057 -28 c607 -92 1080
-122 1556 -96 181 10 198 6 198 -39 0 -13 -11 -37 -25 -53 -39 -47 -115 -62
-375 -72 -124 -5 -286 -15 -360 -21 -162 -14 -588 -13 -679 2 -123 19 -391 93
-450 124 -53 27 -111 91 -111 123 0 59 38 64 246 32z m-3744 -110 c47 -14 52
-22 37 -67 -22 -69 -126 -160 -203 -177 -40 -10 -115 18 -165 61 -37 31 -42
40 -39 72 3 32 9 39 54 63 97 52 229 72 316 48z m10123 -2235 c14 -13 25 -33
25 -43 0 -43 -118 -176 -173 -195 -52 -19 -93 49 -78 128 14 75 45 107 118
124 62 15 83 12 108 -14z m-1185 -521 c10 -10 11 -22 4 -39 -26 -68 -689 -746
-929 -950 -261 -222 -544 -445 -565 -445 -53 0 -34 57 67 203 58 83 125 153
384 396 96 91 284 273 418 405 322 317 370 359 466 406 85 42 134 50 155 24z
m-2312 -1911 c17 -23 15 -94 -3 -120 -20 -29 -139 -115 -202 -147 -69 -34
-110 -35 -119 -1 -11 45 5 89 55 150 53 64 124 121 169 136 36 11 84 3 100
-18z m-1577 -1505 c41 -42 83 -131 75 -162 -6 -26 -31 -38 -129 -62 -37 -9
-82 -26 -100 -38 -31 -21 -32 -25 -38 -106 -3 -47 -9 -92 -13 -102 -13 -28
-61 -40 -147 -36 -70 3 -83 6 -100 27 -21 26 -25 84 -8 127 15 40 146 221 195
270 58 59 151 112 196 113 28 1 44 -6 69 -31z"/>
<path d="M32375 13514 c-131 -40 -452 -122 -620 -158 -656 -140 -1351 -205
-1897 -178 -286 14 -358 24 -1083 137 -1022 159 -1098 163 -1635 84 -439 -65
-803 -194 -1026 -362 -308 -233 -468 -434 -535 -673 -30 -106 -31 -274 -1
-386 48 -180 147 -321 269 -386 112 -59 192 -77 343 -75 150 1 261 24 401 82
176 73 345 205 417 323 39 65 110 247 118 304 l6 40 -43 13 -43 13 -65 -70
c-189 -202 -484 -287 -672 -195 -167 82 -246 233 -205 391 22 89 50 138 118
209 133 137 344 242 586 290 117 22 400 22 577 -1 72 -10 234 -37 360 -61 502
-96 993 -184 1053 -191 34 -4 62 -11 62 -16 0 -5 -62 -77 -137 -159 -371 -404
-475 -554 -707 -1019 -89 -179 -183 -371 -210 -428 -35 -76 -53 -103 -69 -107
-12 -2 -49 -9 -82 -15 -105 -20 -258 -70 -335 -112 -149 -80 -289 -217 -369
-362 l-43 -78 43 -36 c66 -58 62 -58 146 9 112 89 186 122 291 127 79 4 186
-10 196 -26 5 -8 -21 -71 -134 -339 -197 -463 -408 -855 -602 -1115 -89 -120
-268 -319 -386 -430 -184 -173 -395 -278 -677 -338 -142 -30 -361 -37 -484
-16 -250 44 -487 167 -688 359 -161 155 -240 277 -307 477 -87 259 -86 446 4
670 12 30 23 57 25 59 2 2 23 -13 47 -33 24 -21 76 -54 116 -73 225 -112 514
3 603 238 94 246 -3 486 -240 602 l-86 42 -120 -1 c-142 0 -223 -18 -332 -71
-83 -41 -189 -132 -248 -213 -81 -111 -164 -314 -207 -507 -18 -82 -22 -131
-22 -303 -1 -181 2 -217 23 -310 77 -342 242 -633 502 -886 164 -159 299 -253
504 -350 379 -180 840 -220 1298 -113 389 91 837 361 1203 724 264 263 478
555 687 940 99 184 155 308 302 673 l122 304 184 -1 c232 -1 330 16 469 85 83
42 108 60 205 158 145 147 284 340 285 397 0 11 -24 27 -66 46 l-67 30 -62
-61 c-130 -126 -230 -167 -423 -174 -111 -4 -348 11 -360 22 -2 2 47 138 108
302 98 264 128 332 259 585 165 318 201 376 394 629 l133 175 130 7 c695 36
1217 129 1793 319 303 100 1091 437 1091 467 0 4 -10 35 -22 70 -14 41 -27 62
-37 61 -9 0 -65 -16 -126 -35z"/>
<path d="M16033 13489 c-303 -28 -656 -161 -836 -317 -144 -125 -294 -353
-355 -542 -42 -129 -55 -402 -27 -566 19 -108 51 -179 143 -316 144 -214 293
-372 460 -486 92 -63 390 -243 513 -311 184 -101 679 -317 998 -437 505 -189
660 -272 842 -453 196 -196 269 -374 269 -651 0 -323 -120 -613 -349 -841
-219 -219 -503 -347 -891 -400 -143 -20 -517 -17 -660 4 -319 49 -559 137
-784 287 -379 253 -585 634 -538 991 14 99 57 203 90 213 11 4 50 -8 93 -28
176 -80 297 -72 452 31 154 103 233 268 207 436 -22 148 -118 284 -243 345
-129 64 -242 69 -389 19 -394 -137 -619 -513 -620 -1037 0 -332 87 -599 289
-883 75 -105 314 -345 419 -420 280 -198 740 -358 1111 -386 377 -29 928 79
1363 267 115 49 318 194 457 325 413 390 606 880 563 1430 -26 336 -113 605
-277 851 -174 262 -431 444 -1007 717 -160 75 -354 167 -431 204 -77 36 -253
118 -392 181 -337 154 -628 316 -772 432 -24 19 -71 69 -104 111 -114 144
-164 297 -138 423 39 189 176 320 398 379 107 29 357 37 498 15 119 -18 294
-69 465 -137 353 -139 600 -307 890 -605 160 -165 224 -248 348 -451 51 -84
96 -153 100 -153 14 0 132 45 132 50 0 3 -34 107 -76 230 -83 248 -154 492
-178 615 -15 73 -65 454 -82 618 -7 75 -32 111 -85 122 -37 8 -62 -6 -139 -80
-124 -118 -204 -146 -362 -126 -139 18 -198 36 -368 113 -377 170 -714 243
-997 217z"/>
</g>
</svg>
