<svg width="30" height="28" viewBox="0 0 30 28" fill="none" xmlns="http://www.w3.org/2000/svg">
<path d="M12.1152 0.310719C9.14985 0.900003 6.7037 2.13215 4.546 4.125C2.73447 5.79643 1.56908 7.51072 0.796004 9.66429C0.253696 11.1429 0.115234 12.0429 0.115234 13.9071C0.115234 16.4679 0.461388 17.9036 1.55754 20.0036C3.38062 23.475 6.7037 26.1214 10.7306 27.3C13.5114 28.1143 16.6729 28.0929 19.4883 27.2464C24.6806 25.6821 28.696 21.4821 29.7229 16.5321C29.9883 15.2464 29.9883 12.6964 29.7229 11.4321C28.5691 5.90357 23.8152 1.44643 17.896 0.321432C16.3729 0.0321465 13.546 0.0321465 12.1152 0.310719ZM17.8268 1.44643C20.6191 2.01429 22.7652 3.10715 24.7614 4.97143C26.5614 6.65358 27.6575 8.43215 28.3383 10.7679C28.6383 11.7643 28.6614 11.9893 28.6614 13.9821C28.6614 15.9857 28.6383 16.2 28.3498 17.1643C27.2537 20.8286 24.7499 23.7536 21.3114 25.3607C17.2498 27.2464 12.6229 27.2357 8.63062 25.3179C5.06523 23.6143 2.66523 20.7536 1.59216 16.9286C1.37293 16.1571 1.33831 15.7286 1.32677 14.0893C1.32677 11.8071 1.48831 10.9286 2.24985 9.18215C2.98831 7.48929 3.78447 6.36429 5.19216 5.025C7.396 2.94643 9.88831 1.74643 13.0268 1.28572C13.9383 1.14643 16.8691 1.24286 17.8268 1.44643Z" fill="#E46400"/>
<path d="M8.72284 6.13927C8.09976 6.27856 7.32668 6.99642 7.15361 7.5857C6.92284 8.42142 7.32668 9.27856 8.19207 9.81427L8.65361 10.1036V13.7036V17.3036L8.22668 17.5178C7.37284 17.9464 6.9113 18.8786 7.15361 19.7143C7.28053 20.1643 7.82284 20.8178 8.23822 21.0214C9.32284 21.5571 10.5921 21.1286 11.2151 20.0036C11.6651 19.1786 11.2498 18.0964 10.269 17.5178L9.79591 17.2393L9.83053 15.6107L9.86514 13.9821L11.8036 13.95L13.7305 13.9286V15.6107V17.3036L13.3036 17.5178C12.8536 17.7428 12.2882 18.4714 12.1728 18.9643C12.0113 19.6607 12.6228 20.6893 13.419 21.075C13.9382 21.3214 14.9075 21.2893 15.4151 21C16.2459 20.5178 16.6728 19.5107 16.3844 18.7071C16.2113 18.225 15.7728 17.7214 15.3344 17.5071L14.9998 17.3464V15.6428V13.9286H17.9536C19.7651 13.9286 20.9882 13.8857 21.1267 13.8214C21.3344 13.7143 21.3459 13.575 21.3459 11.8928V10.0821L21.6805 9.92142C22.1305 9.69642 22.8113 8.9357 22.9036 8.54999C23.1921 7.33927 22.0844 6.0857 20.7113 6.0857C20.1575 6.0857 19.3959 6.51427 18.9921 7.04999C18.2998 7.94999 18.6228 9.13927 19.7305 9.81427L20.2036 10.1036L20.169 11.4536L20.1344 12.8036L17.5728 12.8357L14.9998 12.8571V11.4964V10.125L15.5651 9.67499C16.7421 8.73213 16.8113 7.69284 15.7728 6.66427C14.3421 5.27142 11.7344 6.66427 12.2536 8.5607C12.3921 9.07499 13.2228 9.96427 13.5575 9.96427C13.7075 9.96427 13.7305 10.1893 13.7305 11.4107V12.8571H11.8382H9.95745L9.87668 12.0321C9.84207 11.5821 9.80745 10.9607 9.80745 10.65C9.80745 10.1357 9.84207 10.0607 10.1305 9.92142C10.8228 9.58927 11.4228 8.72142 11.4228 8.06784C11.4113 7.60713 11.0421 6.94284 10.569 6.55713C10.3382 6.37499 10.1075 6.21427 10.0613 6.21427C10.0151 6.21427 9.79591 6.17142 9.57668 6.12856C9.35745 6.07499 8.97668 6.0857 8.72284 6.13927ZM9.85361 7.40356C10.0959 7.57499 10.1536 7.71427 10.1536 8.08927C10.1536 8.47499 10.0959 8.59284 9.84207 8.7857C9.21899 9.2357 8.30745 8.83927 8.30745 8.12142C8.30745 7.30713 9.17284 6.89999 9.85361 7.40356ZM15.0344 7.48927C15.3805 7.79999 15.3228 8.45356 14.9305 8.76427C14.3305 9.24642 13.3844 8.8607 13.3844 8.12142C13.3844 7.47856 13.8113 7.1357 14.4805 7.23213C14.6651 7.26427 14.919 7.38213 15.0344 7.48927ZM21.4036 7.42499C22.119 7.99284 21.5882 9.09642 20.6651 8.95713C20.169 8.88213 19.8459 8.5607 19.8459 8.12142C19.8459 7.29642 20.7459 6.88927 21.4036 7.42499ZM9.95745 18.6214C10.2459 18.8571 10.2228 19.65 9.92284 19.9286C9.62284 20.2071 8.99976 20.2071 8.60745 19.9178C8.09976 19.5428 8.21514 18.7607 8.82668 18.4393C9.10361 18.3 9.66899 18.3857 9.95745 18.6214ZM15.0228 18.6321C15.3459 18.9214 15.3344 19.6178 14.9998 19.9286C14.4575 20.4321 13.3844 20.0036 13.3844 19.2964C13.3844 18.8143 13.4998 18.6321 13.8921 18.4821C14.2959 18.3107 14.7344 18.375 15.0228 18.6321Z" fill="#E46400"/>
<path d="M19.0613 16.5214C18.9575 16.6179 18.9229 17.2714 18.9229 18.8036C18.9229 20.85 18.9344 20.9786 19.1652 21.1714C19.3844 21.3536 19.4305 21.3536 19.7075 21.2036C19.9959 21.0643 20.019 20.9786 20.0536 20.325C20.0882 19.6072 20.0882 19.6072 20.4229 19.6072C20.6882 19.6072 20.8267 19.7036 21.1267 20.1C21.6575 20.8179 22.1536 21.3214 22.3382 21.3214C22.5459 21.3214 22.9613 20.9357 22.9613 20.7429C22.9613 20.6679 22.7536 20.325 22.5113 19.9822L22.0498 19.35L22.3729 19.0072C22.8459 18.5143 23.0075 17.9893 22.8575 17.5393C22.719 17.1643 22.2805 16.725 21.8421 16.5107C21.4959 16.35 19.2459 16.35 19.0613 16.5214ZM21.4382 17.5286C21.6229 17.5822 21.6921 17.6786 21.6921 17.9036C21.6921 18.2786 21.369 18.4286 20.5844 18.4286H20.0767V18.0214C20.0767 17.7964 20.1113 17.5714 20.1575 17.5393C20.2498 17.4429 21.0805 17.4429 21.4382 17.5286Z" fill="#E46400"/>
</svg>
