<?xml version="1.0" standalone="no"?>
<!DOCTYPE svg PUBLIC "-//W3C//DTD SVG 20010904//EN"
 "http://www.w3.org/TR/2001/REC-SVG-20010904/DTD/svg10.dtd">
<svg version="1.0" xmlns="http://www.w3.org/2000/svg"
 width="2048.000000pt" height="1536.000000pt" viewBox="0 0 2048.000000 1536.000000"
 preserveAspectRatio="xMidYMid meet">

<g transform="translate(0.000000,1536.000000) scale(0.100000,-0.100000)"
fill="#000000" stroke="none">
<path d="M9690 13419 c-1105 -43 -2249 -219 -3195 -493 -528 -152 -732 -240
-932 -401 -158 -127 -232 -237 -286 -425 -48 -165 -50 -202 -44 -767 5 -531
11 -654 48 -1103 119 -1453 427 -2651 1013 -3943 204 -449 407 -805 776 -1358
409 -612 734 -1012 1230 -1510 456 -457 921 -852 1508 -1278 252 -182 351
-215 537 -176 112 23 214 83 463 270 1247 937 1967 1716 2784 3010 302 478
417 693 633 1180 690 1557 1007 3162 1008 5110 0 396 -1 424 -21 497 -45 164
-124 298 -250 422 -83 82 -149 127 -292 200 -606 310 -1509 533 -2735 675
-351 41 -711 68 -1202 91 -249 11 -734 11 -1043 -1z m1240 -59 c1374 -81 2513
-278 3301 -570 183 -67 477 -207 578 -275 115 -76 251 -234 303 -352 60 -136
61 -146 66 -583 14 -1338 -157 -2635 -498 -3780 -147 -491 -321 -950 -570
-1500 -131 -291 -211 -443 -375 -715 -804 -1339 -1500 -2152 -2580 -3014 -220
-176 -567 -436 -641 -481 -163 -98 -345 -107 -503 -26 -41 22 -515 378 -729
549 -936 747 -1551 1416 -2197 2392 -406 613 -569 906 -810 1450 -591 1335
-887 2615 -975 4215 -17 304 -27 907 -19 1095 18 407 113 591 408 790 130 87
251 142 471 215 720 238 1583 417 2505 519 421 47 781 71 1255 85 197 6 826
-3 1010 -14z"/>
<path d="M9749 13030 c-1482 -47 -2543 -239 -3584 -647 -223 -87 -358 -157
-419 -216 -61 -60 -130 -191 -146 -276 -13 -69 -13 -803 0 -1121 49 -1212 243
-2270 601 -3277 162 -457 266 -720 405 -1028 460 -1021 1112 -1968 1934 -2809
368 -376 935 -865 1375 -1186 231 -168 325 -206 406 -165 118 61 493 339 779
577 585 488 1098 1009 1548 1572 1317 1647 2046 3661 2207 6101 34 511 47
1256 24 1355 -5 25 -26 79 -46 120 -67 140 -165 212 -443 325 -936 384 -2012
598 -3340 665 -280 14 -1002 20 -1301 10z m155 -365 c95 -46 179 -169 213
-313 26 -110 26 -444 0 -554 -37 -157 -127 -285 -220 -313 -65 -19 -179 -19
-244 0 -91 27 -151 116 -195 290 -20 80 -23 113 -22 290 1 171 4 211 22 277
45 164 118 263 236 320 50 24 71 28 116 25 30 -2 72 -12 94 -22z m766 -5 c221
-23 305 -120 304 -350 0 -73 -5 -106 -21 -141 -27 -61 -87 -126 -123 -134 -17
-4 -32 -10 -35 -15 -3 -5 12 -55 34 -112 22 -57 67 -175 100 -262 33 -88 58
-162 56 -165 -10 -9 -179 0 -192 11 -17 14 -51 106 -118 325 l-60 193 -56 0
-56 0 -7 -92 c-3 -50 -6 -166 -6 -258 l0 -166 -57 -2 c-32 -1 -70 1 -85 4
l-28 6 0 387 c0 213 3 476 7 584 l6 197 121 0 c67 0 164 -5 216 -10z m926 -55
c66 -29 130 -93 159 -159 54 -120 43 -146 -65 -146 -73 0 -100 14 -100 50 0
27 -46 78 -93 102 -35 17 -46 19 -78 9 -45 -13 -85 -58 -98 -109 -18 -66 -25
-397 -11 -497 15 -110 27 -141 75 -194 93 -103 212 -59 234 86 3 27 2 67 -3
90 l-9 42 -56 3 c-55 3 -55 3 -64 41 -6 23 -6 56 -1 80 l9 42 85 -3 c102 -4
188 -17 207 -34 12 -10 14 -44 11 -193 l-3 -181 -33 -67 c-39 -78 -74 -106
-167 -133 -73 -21 -183 -15 -248 14 -168 74 -237 282 -224 671 8 228 37 334
119 426 80 92 230 117 354 60z m-2487 -10 c111 -39 165 -124 166 -260 0 -73
-4 -87 -40 -158 -21 -43 -45 -83 -52 -88 -9 -8 -4 -20 25 -50 67 -72 82 -110
82 -215 0 -108 -21 -188 -69 -257 -45 -66 -97 -93 -206 -106 -95 -12 -315 -31
-352 -31 l-23 0 0 323 c0 177 3 439 7 583 l6 261 111 11 c141 13 288 8 345
-13z m2981 -33 l75 -18 6 -109 c4 -61 7 -162 8 -225 l1 -115 43 -14 c51 -16
199 -41 245 -41 l32 0 0 226 0 227 71 -6 c39 -3 73 -8 75 -10 2 -2 5 -257 6
-568 2 -445 0 -569 -10 -586 -14 -25 -42 -29 -90 -12 -46 16 -52 51 -52 314
l0 231 -57 12 c-48 10 -251 42 -268 42 -2 0 -6 -123 -7 -272 l-3 -273 -35 3
c-99 8 -109 12 -121 50 -8 26 -13 208 -16 600 -4 466 -3 562 9 562 7 -1 47 -9
88 -18z m-3666 -39 c18 -126 14 -1098 -5 -1117 -9 -9 -160 -28 -167 -21 -4 4
-8 136 -10 293 -2 158 -7 290 -11 295 -4 4 -33 -86 -65 -200 -89 -323 -115
-407 -130 -421 -15 -16 -38 37 -157 371 -60 165 -65 175 -73 145 -5 -18 -11
-152 -15 -298 l-6 -265 -68 -14 c-57 -12 -70 -12 -77 -1 -5 7 -12 61 -16 119
-8 132 2 944 13 991 7 29 15 36 48 47 56 16 111 16 128 -2 14 -14 86 -225 173
-510 l37 -120 14 40 c8 22 53 168 100 325 87 292 100 327 127 350 19 15 68 28
118 29 35 1 37 -1 42 -36z m4573 -113 c29 -6 58 -19 65 -27 10 -13 12 -130 10
-592 -2 -317 -5 -577 -7 -579 -3 -3 -103 12 -154 24 l-23 5 4 577 c3 317 8
585 12 595 5 10 15 16 25 13 9 -2 39 -10 68 -16z m-5774 -180 c80 -270 218
-811 242 -951 l7 -36 -59 -16 c-32 -9 -71 -17 -88 -19 l-30 -3 -36 145 c-41
167 -26 156 -167 119 -81 -22 -83 -23 -101 -65 -11 -24 -25 -78 -31 -121 -6
-43 -15 -101 -21 -129 l-10 -52 -89 -31 c-87 -30 -110 -36 -110 -26 0 2 52
233 115 512 172 754 165 733 243 757 26 8 60 14 77 13 29 -2 31 -6 58 -97z
m6197 77 c31 -15 33 -21 175 -368 124 -302 144 -346 145 -315 0 18 1 18 20 1
18 -17 19 -16 24 6 3 13 8 145 11 294 4 148 7 271 8 272 1 1 35 -8 75 -20 l72
-21 3 -386 c3 -475 -1 -716 -11 -755 -6 -22 -15 -31 -33 -33 -66 -8 -111 73
-289 522 -88 219 -125 304 -130 290 -7 -18 -8 -17 -15 5 -20 63 -25 -23 -19
-325 4 -177 5 -328 1 -336 -4 -13 -14 -13 -73 -1 -38 8 -70 16 -72 18 -14 14
-21 222 -21 663 l-1 502 53 0 c28 0 63 -6 77 -13z m-7129 -771 c5 -258 11
-472 14 -475 6 -5 53 10 233 74 56 20 107 33 112 30 6 -3 10 -32 10 -65 0 -48
-4 -62 -24 -81 -20 -19 -217 -102 -432 -181 l-72 -27 -5 62 c-11 128 -29 1109
-21 1117 5 5 43 22 84 39 l75 30 8 -27 c5 -15 12 -238 18 -496z m8012 492 l47
-20 0 -248 c0 -136 3 -403 7 -593 7 -397 17 -363 -96 -321 l-71 26 0 587 c0
323 3 591 7 595 9 9 44 0 106 -26z m-3718 -868 c183 -21 399 -74 555 -136 89
-36 151 -76 137 -91 -15 -15 -166 -5 -260 17 -112 26 -298 43 -312 28 -7 -7
-6 -12 3 -15 6 -3 12 -11 12 -19 0 -20 44 -39 152 -64 54 -12 100 -25 103 -30
11 -17 -96 -41 -234 -52 -175 -13 -297 -1 -416 41 -44 16 -120 43 -170 61 -53
19 -118 35 -157 38 -61 4 -72 2 -106 -21 -31 -20 -43 -37 -60 -88 -19 -56 -20
-66 -7 -85 41 -63 285 -92 960 -114 536 -17 737 -34 866 -70 95 -27 255 -164
305 -261 26 -50 28 -62 28 -169 -1 -135 -18 -208 -70 -282 -20 -30 -34 -62
-34 -81 0 -22 -10 -40 -40 -69 -51 -48 -80 -49 -154 -4 -62 37 -119 51 -166
41 -48 -11 -45 -24 13 -50 68 -30 87 -55 87 -116 0 -26 16 -103 37 -171 56
-189 49 -268 -21 -268 -43 0 -141 57 -191 111 -56 60 -82 99 -176 268 -107
192 -194 267 -300 259 -66 -5 -65 -33 7 -145 31 -48 64 -104 72 -123 8 -19 33
-64 56 -100 50 -78 61 -104 81 -195 9 -38 31 -117 50 -175 18 -58 43 -158 54
-222 12 -65 31 -141 42 -170 12 -29 34 -91 50 -136 16 -46 46 -114 67 -151 42
-73 62 -123 62 -154 0 -11 20 -54 44 -96 24 -42 49 -95 55 -117 12 -46 24 -54
80 -54 45 0 238 -34 302 -53 26 -8 88 -40 140 -71 51 -31 111 -62 134 -68 22
-7 49 -23 60 -37 32 -41 76 -84 165 -163 179 -158 209 -172 399 -188 62 -5
116 -12 120 -16 11 -12 -133 -135 -194 -165 -75 -36 -156 -45 -265 -30 -78 12
-129 27 -278 82 -60 23 -64 23 -77 6 -12 -17 -14 -15 -35 18 -24 39 -54 59
-76 51 -13 -5 -14 -29 -8 -158 7 -157 18 -207 55 -259 26 -37 27 -59 5 -122
-9 -26 -16 -64 -16 -85 -1 -20 -7 -48 -15 -62 -8 -14 -14 -47 -15 -73 0 -46 2
-51 61 -105 51 -48 61 -64 66 -99 7 -53 -11 -84 -64 -109 -43 -21 -68 -64 -59
-100 4 -13 24 -35 46 -49 22 -14 40 -30 40 -35 0 -12 -20 -29 -70 -63 -54 -35
-46 -51 28 -57 97 -8 117 -43 90 -159 -10 -47 -10 -54 9 -79 28 -38 44 -38 92
3 24 19 45 35 47 35 15 0 -24 -46 -69 -81 l-52 -41 -12 29 c-6 16 -19 35 -27
42 -9 8 -16 19 -16 27 0 23 -19 25 -40 4 -12 -12 -20 -33 -20 -55 0 -62 -47
-55 -126 17 -44 41 -45 43 -39 88 3 25 18 81 32 125 22 67 26 97 25 185 -1 71
6 137 20 205 25 121 21 170 -22 296 -47 137 -96 239 -135 279 l-34 35 39 80
c21 44 55 129 76 190 35 104 36 114 31 207 -5 90 -8 101 -42 157 l-38 61 12
70 c15 96 7 110 -62 110 -58 0 -71 7 -112 63 -30 40 -57 47 -89 22 -36 -27
-71 -18 -114 27 -35 36 -45 41 -86 42 -39 1 -51 -3 -67 -24 -19 -25 -20 -39
-7 -140 2 -20 -2 -26 -21 -28 -27 -4 -63 27 -124 108 -62 84 -89 110 -110 110
-18 0 -19 -5 -12 -52 15 -106 14 -109 -30 -125 -56 -19 -68 -34 -56 -65 16
-44 85 -91 207 -145 158 -68 168 -71 297 -84 62 -6 114 -12 116 -14 2 -2 1
-15 -3 -29 -4 -18 -25 -34 -78 -61 -40 -20 -84 -43 -98 -51 -20 -12 -54 -14
-175 -11 -135 4 -159 7 -237 34 -86 30 -151 71 -242 152 -70 64 -126 165 -150
274 -5 21 -12 27 -34 27 -32 0 -62 28 -110 105 -18 28 -48 68 -68 90 l-35 40
5 -40 c9 -67 109 -251 193 -358 113 -143 115 -148 115 -275 -1 -99 -4 -115
-40 -217 -21 -61 -63 -166 -93 -235 -49 -114 -53 -132 -54 -200 0 -72 1 -75
24 -78 18 -3 37 11 85 62 94 101 103 94 113 -89 5 -97 3 -117 -16 -165 -11
-30 -21 -66 -21 -80 0 -36 27 -70 55 -70 29 0 102 88 147 178 28 56 30 68 24
120 -25 199 -21 192 -111 233 -72 33 -105 62 -105 92 0 54 112 246 155 265 34
16 31 17 70 -25 32 -35 36 -36 94 -34 47 2 61 -1 61 -12 0 -20 -28 -43 -82
-66 -64 -27 -64 -50 1 -96 84 -60 108 -138 75 -241 -8 -27 -19 -92 -23 -144
-8 -99 -42 -204 -97 -297 -24 -42 -26 -43 -77 -43 -77 0 -87 -10 -54 -57 15
-22 27 -53 27 -70 0 -35 -38 -91 -99 -146 -47 -43 -55 -43 -166 -12 -57 16
-76 40 -99 126 -8 30 -23 78 -35 107 -13 33 -18 59 -13 68 7 13 10 13 22 -1
12 -14 15 -14 37 6 12 13 23 32 23 43 -1 40 -48 156 -93 226 -25 39 -64 116
-88 173 -23 56 -71 146 -105 199 -86 133 -93 149 -101 218 -3 33 -10 60 -14
60 -18 0 -42 -68 -47 -130 l-4 -65 65 -96 c61 -89 215 -382 257 -490 20 -49
13 -66 -13 -29 -7 10 -37 45 -67 76 -53 56 -53 56 -89 45 -54 -18 -215 -30
-223 -17 -4 6 24 16 75 27 101 21 127 31 151 58 19 21 19 23 2 79 -24 76 -37
100 -111 212 -35 52 -69 115 -76 140 -11 40 -9 54 15 132 73 240 131 335 268
438 99 75 122 102 114 134 -7 27 -81 69 -122 69 -26 -1 -80 -39 -215 -156 -47
-41 -116 -95 -153 -122 l-67 -47 -112 4 c-128 6 -216 33 -363 113 -46 25 -86
45 -89 45 -15 0 -28 -106 -29 -240 -1 -174 4 -190 69 -233 41 -26 48 -43 39
-92 -9 -52 -49 -95 -86 -95 l-31 0 6 -52 c4 -29 9 -64 12 -78 3 -14 -3 0 -14
30 -12 32 -33 67 -52 83 l-31 29 -39 -38 c-24 -23 -65 -90 -110 -178 -40 -78
-106 -197 -147 -266 -94 -157 -98 -166 -117 -286 -21 -128 -42 -173 -157 -325
-53 -69 -101 -135 -107 -147 -6 -12 -11 -71 -11 -140 0 -167 -7 -211 -36 -222
-37 -15 -55 -54 -70 -153 -8 -51 -23 -120 -34 -152 -44 -128 -75 -145 -261
-145 l-132 0 7 42 c16 96 17 145 3 157 -12 9 -25 -2 -69 -56 -60 -76 -81 -85
-86 -36 -5 49 43 146 117 238 35 43 75 104 88 135 28 62 85 144 167 240 31 36
71 94 90 130 30 56 36 82 46 175 13 133 39 232 86 334 72 154 72 157 84 416
12 275 20 322 88 541 78 248 84 271 92 406 17 256 94 469 262 731 149 232 205
360 219 497 32 319 117 507 294 654 58 47 117 84 360 226 127 74 257 169 425
309 82 69 173 135 209 154 101 50 130 46 431 -56 264 -90 508 -157 658 -181
l87 -15 35 28 c44 34 89 121 96 188 8 65 -10 140 -47 197 -40 60 -157 139
-255 172 l-79 27 -510 8 c-874 14 -1041 38 -1212 176 -36 29 -43 40 -43 71 0
79 70 174 185 251 177 118 450 171 720 141z m1514 -1950 c22 -27 49 -76 61
-107 20 -53 21 -73 18 -223 -4 -194 -8 -206 -103 -280 -33 -26 -61 -54 -63
-64 -6 -27 72 -173 137 -260 l60 -80 -17 -29 c-9 -16 -34 -45 -56 -64 -36 -33
-42 -35 -93 -31 -90 8 -146 67 -159 165 -11 91 3 248 36 391 35 157 37 220 9
345 -33 145 -15 215 66 267 45 29 61 25 104 -30z m-2699 -2771 c0 -6 -4 -7
-10 -4 -5 3 -10 11 -10 16 0 6 5 7 10 4 6 -3 10 -11 10 -16z m555 -33 c-89
-61 -124 -105 -135 -170 -15 -93 -72 -175 -155 -221 -70 -39 -128 -98 -185
-185 -53 -83 -72 -124 -101 -217 -12 -37 -35 -80 -60 -110 -22 -26 -54 -74
-71 -106 -40 -74 -98 -140 -142 -161 -20 -9 -59 -16 -94 -16 l-60 0 8 34 c4
18 3 41 -2 50 -5 9 -6 25 -3 36 9 30 -19 25 -72 -11 -32 -23 -48 -28 -56 -20
-13 13 -22 118 -13 165 14 74 166 232 328 341 115 77 183 172 223 310 9 33 31
94 48 135 17 41 31 93 32 115 l0 40 64 7 c34 4 68 9 75 12 6 2 103 5 216 5
l205 1 -50 -34z m185 -91 c10 -20 9 -41 -5 -117 l-18 -93 -75 -71 c-82 -79
-81 -72 -14 -122 31 -23 20 -48 -26 -63 -61 -19 -72 -35 -72 -100 0 -57 0 -58
-42 -81 -24 -13 -42 -28 -41 -33 1 -6 19 -13 40 -16 38 -7 37 -7 -7 -5 -44 1
-45 2 -45 35 0 19 -6 36 -12 38 -7 3 -13 11 -13 19 0 21 -17 17 -54 -11 -42
-32 -46 -32 -46 8 0 64 76 197 177 310 78 88 149 213 187 329 4 15 9 16 30 7
13 -6 29 -22 36 -34z"/>
<path d="M9732 12490 c-38 -9 -76 -41 -100 -85 -15 -26 -17 -70 -17 -336 l0
-306 27 -35 c36 -47 107 -88 153 -88 29 0 45 9 85 46 71 66 73 81 68 390 -5
230 -8 266 -25 305 -22 49 -84 109 -113 109 -10 0 -24 2 -32 4 -7 2 -28 0 -46
-4z"/>
<path d="M10496 12503 c-3 -4 -6 -78 -6 -165 l0 -158 34 -17 c31 -14 43 -15
113 -3 68 12 83 18 115 50 64 63 69 132 15 216 -46 73 -58 79 -167 81 -54 1
-100 -1 -104 -4z"/>
<path d="M8816 12383 c-9 -114 -7 -233 4 -233 6 0 10 -7 10 -16 0 -9 6 -14 13
-11 7 3 49 11 93 18 92 14 116 27 138 74 32 66 14 160 -41 218 -25 26 -31 27
-118 27 l-92 0 -7 -77z"/>
<path d="M8863 11963 l-53 -4 0 -154 c0 -187 6 -205 64 -205 45 1 116 14 158
31 40 16 69 70 75 137 6 66 -9 111 -55 163 -27 30 -35 34 -83 35 -30 0 -78 -1
-106 -3z"/>
<path d="M7071 11808 c-35 -181 -37 -208 -18 -208 17 0 137 41 137 46 0 3 -16
75 -35 161 -19 86 -35 158 -35 160 0 2 -4 3 -8 3 -5 0 -23 -73 -41 -162z"/>
<path d="M10460 10923 c0 -12 38 -47 67 -62 25 -13 203 -15 203 -3 0 12 -37
30 -100 48 -70 19 -170 30 -170 17z"/>
<path d="M10685 10033 c-19 -5 -34 -20 -35 -34 0 -10 118 -162 133 -170 8 -5
30 -6 49 -3 l35 6 -5 47 c-6 55 -38 128 -62 141 -23 12 -90 20 -115 13z"/>
<path d="M10630 9391 c0 -39 21 -72 99 -156 117 -127 141 -187 101 -253 -29
-48 -88 -71 -180 -72 -41 0 -81 -4 -89 -9 -27 -17 61 -31 199 -31 171 -1 174
-2 165 -97 -7 -82 2 -102 39 -85 65 29 86 139 43 223 -12 24 -54 85 -94 134
-39 50 -106 142 -148 205 -105 156 -135 187 -135 141z"/>
<path d="M9490 8721 c-5 -11 -10 -58 -10 -105 0 -84 0 -85 -35 -113 -28 -23
-37 -40 -45 -83 -6 -29 -9 -55 -7 -56 2 -2 19 1 38 6 18 6 62 10 96 10 84 0
97 -18 88 -117 -8 -82 -8 -83 96 -118 41 -14 89 -31 106 -37 66 -23 55 15 -34
112 -33 36 -65 75 -71 87 -7 12 -12 58 -12 103 0 88 -10 120 -39 120 -27 0
-48 29 -71 95 -19 54 -62 115 -82 115 -4 0 -12 -9 -18 -19z"/>
<path d="M8952 7523 c-32 -6 -55 -47 -54 -97 0 -50 19 -91 57 -126 50 -46 67
-126 48 -221 -11 -56 -194 -219 -245 -219 -10 0 -28 10 -40 22 l-21 21 -33
-35 c-38 -42 -54 -91 -54 -168 0 -77 19 -102 73 -98 39 3 44 7 102 88 41 57
84 102 129 136 37 28 96 81 130 117 41 44 69 67 84 67 12 0 63 -20 112 -45 49
-25 103 -45 118 -45 60 0 106 69 81 123 -6 12 -30 33 -53 46 -41 21 -44 26
-50 74 -3 29 -6 81 -6 118 0 82 -12 96 -58 67 -71 -44 -136 -15 -206 92 -39
58 -74 94 -88 89 -2 -1 -13 -4 -26 -6z"/>
<path d="M10690 6150 c-14 -26 -3 -106 17 -125 16 -16 69 -28 104 -23 20 2 24
9 24 38 0 31 -3 35 -28 38 -20 2 -31 11 -38 30 -22 59 -60 78 -79 42z"/>
<path d="M8480 6042 c0 -84 14 -112 56 -112 42 1 104 82 104 138 0 35 -13 40
-44 17 -28 -21 -44 -19 -83 11 l-33 25 0 -79z"/>
<path d="M8356 5419 c-29 -23 -45 -25 -100 -14 l-39 8 5 -48 c15 -126 117
-133 179 -13 39 76 14 114 -45 67z"/>
<path d="M9133 5750 c-18 -11 -33 -26 -33 -34 0 -8 24 -35 52 -61 51 -45 55
-47 100 -42 71 9 105 31 117 75 20 68 16 71 -63 50 -39 -10 -48 -9 -85 10 -51
27 -48 27 -88 2z"/>
</g>
</svg>
