<?xml version="1.0" standalone="no"?>
<!DOCTYPE svg PUBLIC "-//W3C//DTD SVG 20010904//EN"
 "http://www.w3.org/TR/2001/REC-SVG-20010904/DTD/svg10.dtd">
<svg version="1.0" xmlns="http://www.w3.org/2000/svg"
 width="672.000000pt" height="371.000000pt" viewBox="0 0 672.000000 371.000000"
 preserveAspectRatio="xMidYMid meet">

<g transform="translate(0.000000,371.000000) scale(0.100000,-0.100000)"
fill="#000000" stroke="none">
<path d="M2920 3479 c-600 -45 -1186 -191 -1640 -408 -135 -64 -68 -47 91 23
516 229 1240 376 1856 376 84 0 144 4 148 10 7 12 -286 11 -455 -1z"/>
<path d="M3000 3290 c-313 -23 -636 -71 -875 -131 -915 -229 -1532 -651 -1655
-1133 -25 -98 -27 -248 -4 -349 56 -250 279 -521 594 -722 384 -246 905 -424
1490 -510 304 -44 397 -50 815 -50 406 0 476 4 785 46 790 107 1493 407 1854
789 176 188 261 367 273 575 22 394 -277 770 -836 1054 -434 220 -937 356
-1541 416 -185 19 -723 27 -900 15z m890 -115 c676 -66 1253 -240 1690 -510
243 -151 432 -339 523 -520 53 -105 71 -183 71 -305 0 -203 -81 -375 -266
-562 -372 -374 -1049 -648 -1848 -747 -767 -94 -1595 -26 -2245 186 -662 216
-1128 570 -1240 943 -25 83 -30 230 -11 319 52 246 262 489 602 697 477 292
1140 472 1914 518 136 8 662 -4 810 -19z"/>
<path d="M3100 3123 c-1284 -70 -2322 -552 -2474 -1149 -126 -493 473 -1010
1461 -1263 469 -120 952 -168 1493 -150 1284 45 2396 558 2525 1165 20 93 19
157 -4 247 -110 430 -677 811 -1506 1012 -464 113 -1018 164 -1495 138z
m-1127 -620 c-41 -120 -84 -242 -94 -272 -10 -30 -19 -58 -19 -63 0 -4 65 -8
144 -8 l143 0 -31 -87 -31 -88 -258 -5 c-141 -3 -257 -4 -257 -3 0 3 127 376
180 528 42 119 50 153 41 167 -28 45 -19 48 123 48 l135 0 -76 -217z m864
-150 c12 -203 20 -369 20 -370 -1 0 -48 -3 -105 -5 l-103 -3 3 83 3 82 -106 0
-107 0 -44 -77 -43 -78 -115 -5 c-63 -3 -116 -5 -117 -5 -1 0 91 155 203 343
167 278 203 346 194 357 -7 8 -10 22 -6 30 4 12 31 15 154 15 l148 0 21 -367z
m573 190 c18 -98 36 -187 41 -198 8 -20 8 -20 8 0 1 11 27 99 59 195 l59 175
107 3 c100 3 106 2 96 -15 -6 -10 -64 -175 -129 -368 l-119 -350 -98 -5 c-55
-3 -100 -5 -101 -5 0 0 -21 102 -45 227 l-43 226 -74 -216 c-40 -119 -76 -220
-80 -224 -3 -3 -49 -8 -102 -10 l-96 -3 90 260 c150 437 143 411 128 439 -7
13 -10 29 -7 35 5 7 54 11 140 11 l132 0 34 -177z m851 167 c136 -38 177 -153
125 -354 -47 -183 -120 -296 -222 -346 -47 -24 -60 -25 -287 -30 -130 -3 -237
-3 -237 0 0 3 48 142 106 310 58 168 111 320 117 337 8 26 7 36 -5 50 -33 39
-15 43 180 43 103 0 203 -5 223 -10z m836 -272 c-8 -13 -27 -57 -41 -99 l-27
-75 -285 -95 c-178 -59 -282 -89 -279 -81 3 8 8 24 11 37 5 20 27 31 142 71
75 27 157 54 182 61 40 11 28 12 -113 10 -86 -1 -157 -2 -157 -1 0 3 50 144
59 167 l11 27 255 0 255 0 -13 -22z m-1911 -626 c92 -47 127 -137 105 -268
-38 -228 -138 -396 -263 -442 -155 -57 -364 -24 -420 66 -46 74 -41 195 14
351 40 114 62 154 110 207 81 88 159 116 313 111 78 -3 109 -8 141 -25z m-695
-14 c52 -31 79 -81 79 -147 0 -54 -34 -160 -69 -211 -30 -44 -92 -90 -123 -90
-25 0 -23 -11 23 -138 23 -62 40 -114 38 -116 -2 -2 -49 -6 -105 -8 l-100 -3
-35 115 c-19 63 -33 121 -33 128 1 7 -11 12 -31 12 l-33 0 -41 -116 c-23 -63
-41 -119 -41 -124 0 -5 -50 -10 -110 -12 -95 -3 -109 -1 -104 12 3 8 29 85 59
170 29 85 79 230 111 322 52 150 57 169 45 191 -25 47 -14 49 213 45 209 -3
211 -3 257 -30z m1085 -96 c2 -311 6 -417 15 -387 5 17 65 138 133 270 l124
240 118 3 c66 1 114 -1 108 -5 -8 -7 -167 -289 -378 -675 l-31 -57 -130 -3
c-71 -2 -131 -3 -132 -3 -2 0 -33 598 -33 642 0 30 -17 57 -40 65 -6 2 -8 11
-5 21 6 15 23 17 129 17 l121 0 1 -128z m1088 120 c-5 -4 -24 -43 -40 -87
l-30 -80 -140 -3 -139 -3 -18 -48 c-9 -27 -17 -50 -17 -53 0 -2 59 -2 131 0
73 3 130 1 128 -4 -2 -5 -17 -44 -34 -86 l-30 -78 -126 0 -127 0 -15 -42 c-8
-24 -18 -50 -21 -58 -5 -13 14 -15 146 -12 123 2 149 1 141 -10 -6 -7 -23 -48
-38 -90 l-28 -78 -237 0 c-131 0 -245 -3 -254 -6 -11 -4 11 73 80 272 150 434
140 400 125 428 -7 13 -10 29 -7 35 5 8 94 11 284 11 152 0 272 -4 266 -8z
m502 -7 c105 -31 138 -125 94 -267 -27 -89 -71 -152 -124 -177 -23 -12 -48
-21 -54 -21 -18 0 -15 -14 29 -137 23 -63 40 -116 37 -118 -2 -2 -48 -5 -103
-6 l-100 -2 -36 119 c-20 65 -34 122 -32 127 2 4 -11 7 -30 7 l-35 0 -43 -124
-43 -125 -105 -3 c-58 -2 -107 -3 -108 -3 0 0 52 153 117 340 106 306 116 342
102 357 -8 10 -12 24 -9 33 9 22 369 22 443 0z m-3339 -115 c-22 -39 -24 -41
-197 -99 l-175 -59 158 -1 158 -1 -12 -22 c-6 -11 -21 -51 -34 -87 l-22 -66
-251 -5 c-248 -5 -252 -5 -246 15 25 79 64 171 75 178 13 8 547 185 561 187 3
0 -3 -18 -15 -40z"/>
<path d="M2602 2423 c-27 -49 -54 -97 -60 -108 -10 -19 -7 -20 48 -17 l59 4 3
104 c2 57 2 104 1 104 -1 0 -24 -39 -51 -87z"/>
<path d="M4045 2528 c-27 -75 -125 -361 -125 -364 0 -7 74 -4 115 6 23 5 51
21 66 38 45 50 118 271 100 301 -18 28 -147 44 -156 19z"/>
<path d="M2913 1631 c-48 -30 -111 -170 -128 -283 -6 -40 -4 -49 15 -68 19
-19 30 -22 82 -18 49 4 64 9 89 34 32 32 80 140 105 237 15 57 14 62 -4 86
-26 35 -111 41 -159 12z"/>
<path d="M2205 1638 c-2 -7 -13 -38 -25 -68 -11 -30 -20 -57 -20 -60 0 -4 154
5 167 9 1 1 10 15 18 32 23 43 16 82 -15 90 -44 12 -120 10 -125 -3z"/>
<path d="M4915 1638 c-7 -18 -45 -131 -45 -132 0 -8 163 14 174 23 20 17 41
84 33 105 -8 21 -155 24 -162 4z"/>
<path d="M6465 1858 c-2 -7 -9 -58 -15 -113 -26 -236 -140 -453 -345 -660
-176 -176 -361 -304 -640 -440 -609 -299 -1403 -453 -2230 -431 -137 3 -297
11 -355 16 -195 18 -265 23 -260 17 12 -13 302 -39 505 -45 727 -22 1336 56
1900 242 457 152 830 363 1085 615 189 188 303 378 345 580 16 79 30 231 21
231 -4 0 -8 -6 -11 -12z"/>
</g>
</svg>
